<?xml version="1.0" encoding="UTF-8"?>
<svg id="Layer_1" data-name="Layer 1" xmlns="http://www.w3.org/2000/svg" viewBox="0 0 256 256">
  <path d="m114,137.1c0-1.45-.08-2.9.02-4.33.15-2.28-.22-4.47-1.1-6.55-.7-1.65.25-3.09.6-4.5.45-1.82.44-3.59.48-5.39.03-1.66.02-3.32,0-4.98-.03-1.69-1.23-3.4-2.79-3.92-.7-.23-1.47-.36-2.14.18-2.6,2.08-4.91,4.29-4.43,8.1.15,1.21.08,2.46.02,3.69-.08,1.78.1,3.43,1.12,4.99.65,1,.4,2.16-.2,3.18-.73,1.23-.99,2.53-.93,3.97.1,2.3.05,4.6-.37,6.88-.32,1.73.12,3.21,1.23,4.6,1.75,2.21,1.64,2.93-.26,4.93-.95,1-1.86,2.03-2.75,3.08-2,2.35-4.28,1.69-5.87-.76-1.22-1.89-1.76-4.02-1.84-6.21-.12-3.37-.05-6.74-.08-10.11-.02-1.96.15-3.93-.59-5.84-.68-1.73-.26-3.46.41-5.12.21-.52.18-1.05.18-1.58,0-2.41-.07-4.82.04-7.23.07-1.55-.45-2.96-.85-4.36-.62-2.16-2.97-2.75-4.75-1.33-.99.79-2.14,1.38-2.81,2.56-.62,1.08-1.1,2.14-1,3.44.1,1.28.13,2.58.01,3.85-.23,2.36.29,4.51,1.56,6.48.47.73.48,1.32,0,2.05-1.24,1.93-1.64,4.03-1.6,6.35.11,6.21,0,12.42.03,18.63.02,2.85.85,5.31,3.63,6.74.97.5,1.5,1.65.59,2.31-2.26,1.64-3.73,4.1-6.13,5.55-.67.41-1.13.41-1.72-.04-2.42-1.82-4.21-4.21-6.07-6.54-.21-.26-.27-.71-.26-1.06.08-4.49-.2-8.99-.06-13.46.14-4.49-.16-8.98.14-13.46.12-1.87-.61-3.33-1.7-4.66-.78-.95-.89-1.77-.09-2.69,1.41-1.61,1.92-3.46,1.78-5.61-.14-2.29-.14-4.6-.07-6.9.05-1.74-.43-3.24-1.43-4.63-1.15-1.59-1.08-2.32.23-3.78,1.21-1.35,2.37-2.75,3.63-4.04,1.13-1.14,2.27-1.07,3.45.11,1.3,1.3,2.21,2.84,2.83,4.52.85,2.3,2.42,2.93,4.37,1.58,2.39-1.66,4.6-3.54,6.68-5.58,2.38-2.34,3.93-2.19,5.78.54.95,1.4,1.91,2.77,2.56,4.37.67,1.65,2.58,1.88,4,.83,2.73-2.01,5.23-4.29,7.82-6.46,1.81-1.51,3.6-1.17,4.86.86,1.38,2.23,2.57,4.58,3.94,6.82.69,1.12.65,2.28.37,3.4-.97,3.92-.32,7.88-.47,11.82-.01.34.23.7.34,1.05.45,1.35,1.05,2.7.26,4.13-.78,1.43-.66,2.99-.66,4.54,0,1.93.14,3.86-.01,5.78-.18,2.24.29,4.17,1.81,5.86.99,1.1.84,2.17-.19,3.2-1.31,1.31-2.6,2.65-3.88,3.99-2.91,3.02-5.14.99-6.35-1.69-1.75-3.89-1.3-8.05-1.32-12.14Z"/>
  <path d="m67.34,115.25c0,1.93-.02,3.85,0,5.78.02,1.16.04,2.3.6,3.42.38.76.53,1.7.17,2.64-1.27,3.35-.6,6.86-.78,10.3-.14,2.54.14,4.96,1.67,7.13.61.86.49,1.79-.27,2.63-1.15,1.25-2.22,2.58-3.38,3.81-1.71,1.82-3.15,1.76-4.84-.13-.53-.6-1.05-1.21-1.63-1.76-.98-.92-2-1.02-3.15-.2-1.29.92-2.64,1.78-4.01,2.59-3.42,2.05-5.94,1.69-8.99-.99-1.92-1.69-2.76-4-3.91-6.15-1.13-2.11-1.56-4.35-1.33-6.73.23-2.42-.31-4.79-.51-7.18-.09-1.14-.98-1.87-1.49-2.79-.47-.85-.62-1.55,0-2.35,1.68-2.17,1.85-4.69,1.57-7.28-.19-1.73.54-3.34.48-5.07-.06-1.78-.67-3.2-1.87-4.44-2.28-2.34-2.28-2.93.26-5.04,1.92-1.59,3.6-3.43,5.42-5.13,1.12-1.04,1.43-2.59,2.48-3.64.47-.47.62-1.51,1.69-1.03,1.05.47,1.79,1.13,1.69,2.4-.06.8-.17,1.6.13,2.38.54,1.39,1.4,2.37,3.03,2.35.64,0,1.29,0,1.93-.03.9-.04,1.36.54,1.72,1.21.39.72-.05,1.19-.58,1.63-1.18.99-2.32,2.05-3.52,3.01-1.83,1.45-2.91,3.31-2.82,5.63.14,3.63-.5,7.24.03,10.88.34,2.34.74,4.57,2.3,6.43.76.9,1.67,1.08,2.71.67.93-.36,1.85-.77,2.8-1.11.99-.35,1.04-1.67,1.11-2.6.08-1.02.32-1.93.61-2.91,1.28-4.4,1.05-8.87.07-13.29-.17-.79-.78-1.5-1.28-2.18-.97-1.32-.69-2.53.33-3.59,1.52-1.58,2.98-3.2,4.45-4.83,1.44-1.6,3.5-1.15,4.49.9,1.71,3.56,3.12,7.19,2.69,11.28-.12,1.11-.02,2.25-.02,3.37-.02,0-.03,0-.05,0Zm-9.98,22.93s.03,0,.05,0c0-1.39.04-2.78,0-4.17-.07-1.98-1.32-2.78-3.16-2.22-1.2.37-2.45.75-3.73.1-.58-.29-1.15-.2-1.79.19-2.06,1.24-2.07,2.56-1.62,5.31.46,2.77,2.05,5.05,3.84,7.13.89,1.03,2.11,1.99,3.55,1.65,1.79-.42,2.67-1.91,2.84-3.67.14-1.43.03-2.88.03-4.32Z"/>
  <path d="m198.49,133.92c.3,3.44-.08,6.99,2.12,10.12.75,1.07.69,2.64-.72,3.7-1.57,1.19-2.64,2.88-4.01,4.28-1.23,1.26-2.44,1.27-3.77.1-2.2-1.93-2.99-4.59-3.14-7.29-.24-4.37-.08-8.77-.06-13.15,0-.92-.06-1.79-.59-2.6-1.07-1.61-.83-3.27.03-4.85.46-.85.54-1.71.57-2.62.12-3.69,0-7.37-.62-11.03-.22-1.27-1.24-2.07-1.64-3.23-.26-.77-.41-1.39.18-2.06,1.39-1.61,2.69-3.3,4.13-4.86,1.16-1.26,2.48-1.17,3.75.04.87.84,1.46,1.93,2.58,2.58,1,.59,1.85.69,2.81.06,1.77-1.15,3.55-2.3,5.34-3.43,2.15-1.36,3.59-.94,5.87.6,3.33,2.24,4.98,5.54,6.21,9.26.85,2.55,1.03,5.09,1.16,7.69.12,2.27-.12,4.56.66,6.81.79,2.27-.64,4.48-.58,6.77.06,2.3-.07,4.61.03,6.9.06,1.48.3,2.96.62,4.41.17.79.84,1.26,1.67,1.57,2.12.78,2.5,2.03.54,3.47-3.72,2.73-7.14,5.83-9.76,9.68-.58.84-1.31,1.04-2.2.83-1.02-.24-.79-1.13-.83-1.85-.03-.48,0-.96-.01-1.45-.02-1.87-1.1-2.86-3-2.87-1.33,0-2.8.54-3.81-.94-.44-.65-.58-1.07,0-1.79,1.6-1.96,3.05-4.01,5.54-5,.98-.39,1.29-1.28,1.28-2.37-.04-4.55-.02-9.1,0-13.65,0-1.33-.4-2.58-1.16-3.58-.85-1.11-1.89-2.28-3.51-2.15-2,.16-3.31,1.34-4.04,3.17-1.11,2.79-1.86,5.66-1.63,8.72Zm0-20.35h-.11c0,1.39-.03,2.78,0,4.17.04,1.63,1.26,2.5,2.87,2.13,1.45-.34,2.86-.65,4.41-.18,1.77.53,3.02-.66,3.16-2.53.25-3.44-1.21-6.34-2.88-9.13-1.23-2.07-3.23-2.76-5.17-2.15-1.55.49-2.31,1.98-2.28,4.47.01,1.07,0,2.14,0,3.21Z"/>
  <path d="m180.19,109.08c0,3.21.03,6.42-.01,9.63-.03,2.15-.04,4.26,1.03,6.22.23.42.35.96.07,1.4-1.29,2.03-1.1,4.28-1.09,6.52.01,2.25.11,4.5-.01,6.74-.11,1.99.52,3.66,1.66,5.18.81,1.07.83,1.93-.15,2.94-1.14,1.18-2.07,2.56-3.19,3.76-1.4,1.5-2.66,1.47-4.11.01-1.34-1.35-2.22-2.96-2.77-4.76-.71-2.35-2.76-2.94-4.54-1.3-2.29,2.12-4.55,4.27-6.86,6.37-1.78,1.61-3.07,1.54-4.64-.26-.97-1.12-1.84-2.34-2.43-3.73-.58-1.36-1.08-2.76-2.37-3.71-1-.74-.67-1.72-.15-2.55.74-1.19,1-2.43.96-3.81-.06-1.92,0-3.85,0-5.78,0-1.17-.06-2.29-.48-3.45-.43-1.18-.39-2.51.31-3.71.63-1.09.78-2.24.52-3.53-.47-2.27-.4-4.57-.1-6.87.26-1.99.16-3.95-.94-5.73-.87-1.39-.74-2.71.27-4,1.08-1.38,2.03-2.86,3.31-4.08,1.08-1.02,2.13-1.07,3.15.01,2.17,2.3,3.23,5.15,3.26,8.23.04,4.17-.18,8.34-.08,12.52.03,1.28.67,2.34.79,3.57.16,1.59-.59,3.04-.63,4.57-.09,3.48-.11,6.96.06,10.43.07,1.42.33,2.93,1.69,3.95,1.27.95,2.45,1.04,3.75.13.91-.64,2-.76,2.82-1.83,1.32-1.71,1.75-3.43,1.69-5.47-.04-1.66.07-3.32.09-4.97.01-1.28-.04-2.53-.58-3.75-.46-1.03-.53-2.26-.19-3.31,1.19-3.61.65-7.33.7-10.97.06-4.06-.06-8.13-.07-12.19,0-3.08-.29-6.03-2.4-8.52-.81-.95-.79-2.02.11-3,.98-1.06,1.88-2.19,2.9-3.2,1.06-1.03,2.24-1.08,3.45-.14,3.29,2.57,4.8,6.1,5.02,10.1.23,4.11.05,8.23.05,12.35.05,0,.1,0,.15,0Z"/>
  <path d="m241.84,106.55c-1.33.35-2.53-.43-3.82-.69-1.68-.34-2.52.55-2.07,2.21.85,3.13.88,6.34.79,9.55-.07,2.42.03,4.77,1.07,7.03.6,1.31-.41,2.45-.65,3.68-.61,3.12-.93,6.29.33,9.26,1.19,2.79,3.83,3.68,6.64,3.93,2.42.21,3.21,1.32,1.92,3.27-2.11,3.19-4.28,6.36-6.99,9.1-2.25,2.28-4.91,2.71-7.76,1.62-1.46-.56-2.88-.77-4.38-.69-.88.04-1.65-.18-1.99-1-.33-.8.06-1.48.62-2.17,2.48-3.01,8-2.91,10.33-1.55.44.26.9.71,1.43.33.19-.13.19-.59.19-.9-.01-.72-.62-.73-1.12-.91-6-2.09-9.56-6.15-9.56-12.87,0-3.02.24-6.02-1.14-8.94-.81-1.72.41-3.51.82-5.26.1-.41.32-.82.31-1.23-.16-5.66.48-11.34-.45-16.98-.1-.63-.07-1.29-.43-1.86-.6-.94-.06-1.6.55-2.25.61-.66,1.23-.54,2.02-.23,1.49.58,2.4,1.9,3.7,2.7,1.74,1.08,2.65,1.01,3.96-.51.1-.12.2-.25.3-.38,2.4-3.17,2.95-3.37,6.51-2,1.38.53,2.7.56,4.05.04,1-.39,1.97-.55,2.72.44.77,1.02.2,1.86-.4,2.72-1.12,1.6-2.56,2.84-4.18,3.89-.98.64-2.08.81-3.31.64Z"/>
  <path d="m24.62,102.12c-1.93-.02-3.51.22-4.81-.93-.33-.29-.76-.54-1.13-.15-.18.2-.22.59-.21.89.02.47.31.68.8.83,3.84,1.17,6.95,3.31,8.66,7.06.52,1.13.98,2.34.92,3.67-.07,1.66.08,3.32-.02,4.97-.11,1.96.25,3.77,1.02,5.57.84,1.96.08,3.89-.61,5.72-.29.78-.44,1.52-.44,2.33,0,4.44.07,8.87-.02,13.31-.04,1.75.4,3.37.81,5.01.21.87-.11,1.39-.75,1.91-.69.57-1.23.48-2.02.09-1.21-.6-2.12-1.56-3.2-2.32-2.23-1.57-3.1-1.48-4.75.67-.36.46-.67.96-1.08,1.37-1.47,1.46-3.18,1.24-4.87.53-1.73-.72-3.44-.74-5.13-.04-.89.37-1.47,0-1.99-.53-.44-.44-.83-1.03-.38-1.72,1.61-2.43,3.42-4.61,6.43-5.41,1.81-.49,3.49-.1,5.15.55.73.28,1.38.52,2.08-.08.66-.57.74-1.24.54-2.02-.89-3.46-.83-6.98-.71-10.51.06-1.65.11-3.31-.65-4.87-.81-1.67-.13-3.24.25-4.91.68-3.02.97-6.16-.16-9.13-1.05-2.76-3.39-4-6.26-4.17-2.71-.16-3.56-1.47-2.01-3.63,2.21-3.09,4.22-6.36,7.11-8.93,1.94-1.72,4.03-2.3,6.62-1.48,1.69.53,3.46,1.14,5.32.84,1.02-.17,1.62.41,2.06,1.19.5.88-.25,1.4-.7,1.94-1.64,1.96-3.76,2.74-5.9,2.36Z"/>
  <path d="m148.11,144.64c-.44,1.29-1.25,1.87-1.91,2.48-1.76,1.63-3.59,3.17-5.44,4.7-1.77,1.47-2.74,1.38-4.44-.2-1.57-1.46-2.26-3.39-3.08-5.31-1.59-3.73-.74-7.59-.89-11.39-.11-2.67.02-5.32-1.04-7.87-.56-1.34.41-2.58.57-3.88.56-4.38,2.33-8.72.5-13.2-.14-.34-.25-.67-.44-1-1.41-2.43-1.25-3.35.78-5.3.76-.73,1.45-1.53,2.19-2.29,1.57-1.6,2.48-1.58,3.87.21,1.3,1.67,1.97,3.65,2.14,5.7.21,2.55.13,5.13.12,7.69,0,1.56.07,3.09.4,4.62.1.47.23,1.01.09,1.43-.49,1.47,0,2.9.03,4.35.12,4.94.06,9.88.02,14.82-.02,2.07,1.1,3.41,2.73,4.33,1.06.6,2.34.56,3.78.11Z"/>
  <path d="m198.83,160.78c-.55,1.57-2.03,2.69-3.7,3.64-1.19.68-1.98-.07-2.84-.74-1.23-.96-2.68-1.98-2.4-3.64.34-2,2.25-2.73,3.98-3.26,1.9-.58,5.05,1.79,4.95,4Z"/>
  <path d="m61.65,94.74c-1.78-.02-3.72-1.76-3.68-3.31.04-1.62,2.2-3.43,3.91-3.54,1.49-.09,4.11,2.5,4.1,3.71,0,1.36-2.5,3.15-4.32,3.13Z"/>
</svg>